<svg xmlns="http://www.w3.org/2000/svg" viewBox="0 0 1234.94 383.18"><defs><style>.cls-1{fill:#010101;}.cls-2{fill:#040404;}.cls-3{fill:#303030;}.cls-4{fill:#020202;}.cls-5{fill:#92278f;}.cls-6{fill:#3ab54a;}.cls-7{fill:#fef102;}.cls-8{fill:#ec1d25;}</style></defs><title>Asset 1</title><g id="Layer_2" data-name="Layer 2"><g id="Layer_1-2" data-name="Layer 1"><path class="cls-1" d="M1234.94,301c-2,1.69-1.41,4.23-1.83,6.35-2.89,14.94-10.46,20.71-25.65,19.29-13.47-1.26-26.55-4.45-39.54-8.05-2.56-.71-5-1.74-7.58-2.47-21.89-6.18-32.15-21.52-34.41-43.33a227,227,0,0,1-1.15-23.44q0-82.48,0-165a84,84,0,0,1,.9-14.44c2.51-14.44,9.1-20.18,23.91-19.67,16.44.57,32.19,4.72,47.63,10.13,1.41.49,2.77,1.13,4.17,1.65,19.55,7.27,30.44,21.2,32.45,42,.1,1-.58,2.44,1.07,2.93v6c-1.92,1.36-1,3.36-1,5.05-.07,19.75-.06,39.5-.07,59.26-14.05-6.37-27.82-13.37-42.27-18.83-3-1.12-3.94-2.56-3.91-5.75.18-16.65.09-33.31.08-50,0-3.67-.11-7.35-1.61-10.78-1.58-3.59-7.41-6.82-10.71-5.78-4,1.25-3.3,4.88-3.58,7.93-.11,1.16,0,2.33,0,3.5q0,81.7,0,163.4c0,3.83,0,7.65,1,11.4a9.83,9.83,0,0,0,5.92,6.91c4.79,1.93,7.38.66,8.18-4.42a65.17,65.17,0,0,0,.77-9.94c.07-20,0-40,0-60v-5.37c14.19,5.49,27.43,11.55,40.55,17.89,2.09,1,3.88,3.08,6.61,2.46v2c-1.33.94-1,2.37-1,3.65q-.05,31.88,0,63.76c0,1.26-.45,2.72,1,3.58Z"/><path class="cls-2" d="M1069,0c7,1.88,14.31,1.59,21.46,1.77,5.19.13,7.25,1.62,6.34,6.76a14.5,14.5,0,0,0,0,2.49c0,11,0,10.84-10.74,9.62-7.76-.87-15.57-1.48-23.37-2-2.94-.19-4-1.14-3.79-4.21.31-4.81.1-9.65.12-14.47Z"/><path class="cls-3" d="M1234.94,293c-1.47-.87-1-2.32-1-3.58q0-31.88,0-63.76c0-1.28-.36-2.7,1-3.65Z"/><path class="cls-3" d="M1234.94,178l-1.06-.68c0-19.75,0-39.51.07-59.26,0-1.69-.92-3.69,1-5.05Z"/><path class="cls-4" d="M638.4,82.95c2.43-.75,3.14-2.59,4.39-3.79,10.91-10.5,23.41-16.26,38.9-13.22a24.35,24.35,0,0,1,11.62,5.44c2.61,2.31,3.83,1.49,5.82-.69A46.66,46.66,0,0,1,731.55,55c17.26-1.12,25.92,6.21,28.48,23.44a170.42,170.42,0,0,1,1.33,24.93q.08,103,.13,206c0,4.21-1,5.57-5.29,6.1-11.72,1.46-23.38,3.41-35,5.52-4.58.83-6.34.31-6.05-5,.51-9.64.15-19.32.15-29q0-89.23,0-178.46c0-2.67,0-5.33-.17-8-.17-3.25-.46-6.82-4.66-7.06-4-.23-7.65,1.24-9,5.58-1.06,3.36-1,6.89-1,10.39q0,104.23.1,208.46c0,4.73-.77,6.88-6.15,7.53-11.88,1.44-23.67,3.67-35.41,6-4,.79-4.72,0-4.71-3.88q.19-72.74.08-145.47,0-30.24,0-60.49c0-2.5,0-5-.2-7.49-.25-2.93,0-6.26-3.93-7.18a9.46,9.46,0,0,0-10.32,5.21c-1.52,3.62-1.44,7.48-1.44,11.31q0,103,.12,206c0,4.8-1.65,6-6,6.69-12.33,1.89-24.6,4.18-36.85,6.5-2.69.51-3.74,0-3.44-2.78a43.82,43.82,0,0,0,0-4.5q0-124.48-.12-249c0-4.33,1.37-5.62,5.29-6.26,12.31-2,24.6-4.18,36.83-6.64,3.52-.71,4.5.08,4.14,3.46A59.36,59.36,0,0,0,638.4,82.95Z"/><path class="cls-5" d="M.38,82c14.5,4.8,28.59,9.3,42.92,13,2.23.57,2.91,1.69,2.81,3.87-.14,3.09,0,6.2,0,10.21,10.28-9.21,21.35-11.38,33.5-7.27,9.77,3.31,16.55,10.38,22.08,18.71,1.74,2.62,2.45,3.41,5.18.7,17.75-17.68,43.89-12.83,54.44,9.86,4.29,9.22,5.71,19.1,6.66,29,.89,9.28,1.16,18.61,1.15,28q-.07,92.24.09,184.47c0,4.68-1.17,6-5.74,5.33q-17.56-2.44-35.2-4.22c-4.08-.41-5.35-1.77-5.31-6.09.24-28.33.13-56.66.13-85q0-54.49,0-109a44.18,44.18,0,0,0-1.11-11.9,7.93,7.93,0,0,0-8-6.25c-4.24-.07-5,3.42-5.39,6.58a65.56,65.56,0,0,0-.42,9q0,97,.09,194c0,4.63-1.06,5.61-5.5,4.62-11.85-2.64-23.74-5.16-35.71-7.16-4.47-.75-5-2.75-5-6.62q.18-66.74.08-133.48,0-32.5,0-65a41.77,41.77,0,0,0-1-10.41c-1.19-4.67-4.61-6.76-9-7.5-2.74-.46-4.29,1-5.09,3.66-1,3.26-.88,6.59-.88,9.91q0,99,0,198c0,6.38,0,6.5-5.87,4.81-12.3-3.56-24.54-7.3-36.85-10.85C.91,344.21,0,343.1,0,340.43Q.12,212.2.08,84A15.59,15.59,0,0,1,.38,82Z"/><path class="cls-6" d="M517.92,105.59c0-14.82,0-28.6,0-42.38,0-11.49.11-23-.07-34.48,0-3,.8-4,3.79-4.25,13.45-1,26.89-2.11,40.32-3.26,2.07-.18,3.22.26,3,2.58-.09,1,0,2,0,3q0,157.67.12,315.35c0,4.64-1.28,6.22-5.77,6.86q-18.27,2.59-36.41,6.11c-4.42.87-5.67-.25-5-4.42a20.24,20.24,0,0,0,0-3.07c-2.3,0-3.17,1.87-4.44,3-9.58,8.3-20.9,11.54-33.28,11.12s-19.74-7-22.18-19a104.39,104.39,0,0,1-2-20.84q0-80,.06-159.92c0-12.32.77-24.66,4.09-36.62,4.38-15.79,14-26.13,30.78-28.82,7.87-1.26,14.83.63,21.3,5C513.87,102.52,515.42,103.75,517.92,105.59ZM503,232.41q0,11.74,0,23.47c0,19.81,0,39.62.08,59.43,0,3.7.4,7.95,5.22,8.32,4.48.35,7.4-2.49,8.72-6.77a28.19,28.19,0,0,0,1-8.4q0-78.91,0-157.82a41.76,41.76,0,0,0-.33-6.47c-.49-3.07-.63-6.73-4.95-6.95-3.92-.2-6.59,1.94-8.1,5.49s-1.58,7.44-1.58,11.28Q503,193.21,503,232.41Z"/><path class="cls-4" d="M851.75,290.89c-3.14,2.82-6.06,5.53-9.07,8.13-8.93,7.71-19.3,10.17-30.74,7.87-8.59-1.73-13.76-7.62-17.12-15.32-4.9-11.25-5.61-23.29-5.74-35.24-.36-34.65-.28-69.31-.32-104,0-33.32.07-66.64-.11-100,0-3.91,1.2-5,4.91-5.45,12.07-1.33,24.11-3,36.15-4.61,6.1-.82,6.1-.89,6.1,5q0,96.47,0,192.94a71.92,71.92,0,0,0,.52,10.46c.47,3.17,1.52,6.28,5.74,6.32s7.14-1.6,8.34-5.69,1.31-8.53,1.31-12.87q0-94.72,0-189.44c0-9.46,0-9.38,9.3-10.13,10.79-.87,21.58-1.77,32.34-3,4.25-.47,5.56.43,5.55,5.09q-.26,120.46-.12,240.92c0,4.5-.1,9,0,13.49.07,2.33-.25,3.52-3.09,3.74-13.61,1.05-27.21,2.31-40.8,3.67-2.82.28-3.41-.73-3.26-3.23C851.89,296.71,851.75,293.74,851.75,290.89Z"/><path class="cls-7" d="M324,257.43c0-30.64-.06-61.29,0-91.93,0-6.66,1.23-13.22,2.57-19.76q5-24.57,29.35-30.31c17.12-4.05,34.39-6.15,52-3.66,12,1.69,18.79,9.1,22.08,20.29,3.18,10.83,3.64,22,3.67,33.14q.19,81.69,0,163.38a99.57,99.57,0,0,1-1.69,18.87c-2,10.49-7.91,17.75-17.88,21.64-12.86,5-26.44,6.52-40,7.71-8.93.78-17.89,1.4-26.91.35-14.88-1.74-22.22-8.82-23.11-23.79-.51-8.63-.38-17.31-.39-26q-.07-35,0-70Zm46.73-3.59q0,5.5,0,11c0,25.16,0,50.31.1,75.47,0,5.54,2.36,8.22,6.51,8.43,5.28.28,8.15-2.2,8.87-7.85a55.42,55.42,0,0,0,.46-7q0-80,0-159.93a57.21,57.21,0,0,0-1-10.92c-.61-3.1-1.82-6.27-6-6.23-3.93,0-6.61,1.79-7.86,5.65s-1.1,7.9-1.11,11.88Q370.73,214.11,370.77,253.84Z"/><path class="cls-8" d="M257.06,383.18h-17c-8.63-.6-17.3-1-25.71-3.26-12.71-3.47-19.09-11-20.27-24.09-.5-5.47-.81-11-.81-16.46q-.06-81,.08-162a136.24,136.24,0,0,1,3.35-31.72c3.39-14.08,11.82-22.87,26.28-25.19,17.57-2.83,35.18-3,52.64.8,13.72,3,21.2,12.27,24.42,25.48,2.55,10.42,3.24,21,3.25,31.72q0,84,0,168a85.51,85.51,0,0,1-1,12.93c-1.72,11.25-8.28,17.77-19,20.54C274.68,382.15,265.87,382.63,257.06,383.18Zm-.83-119.56q0-40.46,0-80.92c0-3.82.08-7.66-1.14-11.37-1.13-3.45-3-6-7-5.8s-6.33,2.76-6.85,6.61a85.75,85.75,0,0,0-.88,11.43q-.08,80.17,0,160.34a34.71,34.71,0,0,0,.75,7.42c1.07,4.85,4.65,6,9.11,5.74,4.63-.22,5.8-3.17,6-7,.08-2,.1-4,.1-6Q256.23,303.83,256.23,263.62Z"/><path class="cls-4" d="M1031,209.39c.16,17.15.75,34.31-1,51.43a81.79,81.79,0,0,1-2,11.78c-3.59,14.33-12.59,22.57-27.34,24.49C983,299.36,965.5,300,948,296.15c-12.8-2.79-20.14-10.88-23-23.36-3-13.07-3.28-26.42-3.54-39.73-.3-15.82,0-31.65-.24-47.47,0-3.28,1-4.35,4.15-4.47,13.15-.48,26.29-1,39.43-1.83,3.55-.21,3.65,1.47,3.63,4.13q-.12,24.74,0,49.47c0,4.49,0,9,1.5,13.33,1.15,3.32,3.24,5.37,7,5.16s5.83-2.23,6.47-5.78a39.93,39.93,0,0,0,.8-6.92c.06-19.49-.12-39,.11-58.47.1-8.84-3.62-14.85-11.34-18.83-9-4.65-17.88-9.53-26.84-14.26a75,75,0,0,1-13.44-8.56A28.29,28.29,0,0,1,922,117.89,445.8,445.8,0,0,1,922,62.47c1.15-17.6,8.05-25.56,25.51-28.58a170.12,170.12,0,0,1,61.59.16c13.79,2.66,19.29,8.69,21.19,22.7,2,14.41.84,28.94,1.14,43.42,0,2.23-.73,2.86-2.92,2.66a408.78,408.78,0,0,0-40.91-1.8c-3.25,0-3.34-1.54-3.32-4q.09-15.74-.06-31.48c0-3.7-.94-6.94-5.18-8.06-5.27-1.4-9.74,1-10.12,6.48a236.54,236.54,0,0,0,.21,39.41c.47,4.78,4.1,7.43,8.12,9.4,11.36,5.56,22,12.38,33,18.59,14,7.9,20.62,19.8,20.77,35.55C1031.09,181.07,1031,195.23,1031,209.39Z"/><path class="cls-4" d="M1054.12,167.47c0-42.15.06-84.29-.09-126.44,0-4,.65-5.58,5.09-5,12.37,1.65,24.78,3,37.2,4.24,3.87.38,5,1.74,5,5.8q-.23,114.44-.11,228.89c0,8.5-.09,17,.05,25.49,0,2.71-.45,3.81-3.52,3.43-13-1.61-26.11-3.17-39.2-4.36-3.74-.34-4.49-1.59-4.48-5.13C1054.17,252.09,1054.12,209.78,1054.12,167.47Z"/></g></g></svg>